<svg width="12" height="7" viewBox="0 0 12 7" fill="none" xmlns="http://www.w3.org/2000/svg">
<path d="M1.00001 6.33C1.18737 6.51625 1.44082 6.62079 1.70501 6.62079C1.96919 6.62079 2.22264 6.51625 2.41001 6.33L6.00001 2.79L9.54001 6.33C9.72737 6.51625 9.98082 6.62079 10.245 6.62079C10.5092 6.62079 10.7626 6.51625 10.95 6.33C11.0437 6.23703 11.1181 6.12643 11.1689 6.00457C11.2197 5.88271 11.2458 5.75201 11.2458 5.62C11.2458 5.48798 11.2197 5.35728 11.1689 5.23542C11.1181 5.11356 11.0437 5.00296 10.95 4.91L6.71001 0.669996C6.61704 0.576268 6.50644 0.501874 6.38458 0.451105C6.26272 0.400336 6.13202 0.374198 6.00001 0.374198C5.86799 0.374198 5.73729 0.400336 5.61543 0.451105C5.49357 0.501874 5.38297 0.576268 5.29001 0.669996L1.00001 4.91C0.906278 5.00296 0.831883 5.11356 0.781115 5.23542C0.730346 5.35728 0.704206 5.48798 0.704206 5.62C0.704206 5.75201 0.730346 5.88271 0.781115 6.00457C0.831883 6.12643 0.906278 6.23703 1.00001 6.33Z" fill="#6371F4"/>
</svg>
