<svg width="26" height="16" viewBox="0 0 26 16" fill="none" xmlns="http://www.w3.org/2000/svg">
<path d="M11.75 14.3975C11.75 13.88 12.17 13.46 12.6875 13.46H24.5625C25.08 13.46 25.5 13.88 25.5 14.3975C25.5 14.915 25.08 15.335 24.5625 15.335H12.6875C12.17 15.335 11.75 14.915 11.75 14.3975ZM0.5 8.14746C0.5 7.62996 0.92 7.20996 1.4375 7.20996H24.5625C25.08 7.20996 25.5 7.62996 25.5 8.14746C25.5 8.66496 25.08 9.08496 24.5625 9.08496H1.4375C0.92 9.08496 0.5 8.66496 0.5 8.14746ZM5.5 1.89746C5.5 1.37996 5.92 0.959961 6.4375 0.959961H24.5625C25.08 0.959961 25.5 1.37996 25.5 1.89746C25.5 2.41496 25.08 2.83496 24.5625 2.83496H6.4375C5.92 2.83496 5.5 2.41496 5.5 1.89746Z" fill="black"/>
</svg>
